<svg t="1647881946745" class="icon" viewBox="0 0 1024 1024" version="1.1" xmlns="http://www.w3.org/2000/svg" p-id="3043"
  width="32" height="32">
  <defs>
    <style>
      .cls-1 {
        fill: #faf7d9;
      }
    </style>
  </defs>
  <path class="cls-1"
    d="M796 512l104-180c16.9-29.3-4.2-65.9-38-65.9H654L550 86c-16.9-29.3-59.2-29.3-76.1 0L370 266.1H162.1c-33.8 0-54.9 36.6-38 65.9l104 180L124 692c-16.9 29.3 4.2 65.9 38 65.9h208L474 938c16.9 29.3 59.2 29.3 76.1 0l104-180.1H862c33.8 0 54.9-36.6 38-65.9L796 512z"
    p-id="3044"></path>
</svg>